<svg width="37" height="37" xmlns="http://www.w3.org/2000/svg" xmlns:xlink="http://www.w3.org/1999/xlink" xml:space="preserve" overflow="hidden"><defs><clipPath id="clip0"><rect x="72" y="618" width="37" height="37"/></clipPath></defs><g clip-path="url(#clip0)" transform="translate(-72 -618)"><path d="M90.5 654.921C90.3813 654.921 90.2641 654.894 90.1547 654.84L89.4995 654.513C86.117 652.82 75.0787 646.51 75.0787 636.321L75.0818 628.079C75.0818 625.084 76.9919 622.437 79.8363 621.495L90.258 618.039C90.4152 617.986 90.5863 617.986 90.742 618.039L101.162 621.493C104.007 622.437 105.917 625.084 105.917 628.078L105.912 636.32C105.912 647.879 94.8552 653.227 91.4666 654.591L90.7868 654.864C90.6943 654.901 90.5956 654.92 90.4985 654.92ZM90.5 619.583 80.3219 622.958C78.1096 623.692 76.625 625.75 76.625 628.079L76.6219 636.321C76.6219 645.625 87.0066 651.544 90.1901 653.135L90.5355 653.307 90.8931 653.164C94.0551 651.892 104.372 646.917 104.372 636.323L104.377 628.081C104.377 625.752 102.89 623.693 100.68 622.96L90.5 619.583Z"/><path d="M88.929 641.125C87.9408 641.125 86.9526 640.749 86.2003 639.997L81.489 635.518C81.1806 635.225 81.1683 634.736 81.4612 634.428 81.7541 634.121 82.2413 634.107 82.5512 634.4L87.2764 638.893C88.1921 639.807 89.6582 639.808 90.5601 638.907L99.212 630.551C99.5203 630.256 100.009 630.266 100.302 630.571 100.598 630.876 100.59 631.365 100.283 631.661L91.6393 640.007C90.8947 640.752 89.9111 641.127 88.9275 641.127Z"/></g></svg>