<svg width="38" height="38" xmlns="http://www.w3.org/2000/svg" xmlns:xlink="http://www.w3.org/1999/xlink" xml:space="preserve" overflow="hidden"><defs><clipPath id="clip0"><rect x="839" y="531" width="38" height="38"/></clipPath></defs><g clip-path="url(#clip0)" transform="translate(-839 -531)"><path d="M853.25 554.75 862.75 554.75 862.75 545.25 853.25 545.25 853.25 554.75ZM854.833 546.833 861.167 546.833 861.167 553.167 854.833 553.167 854.833 546.833ZM853.25 542.083 862.75 542.083 862.75 532.583 853.25 532.583 853.25 542.083ZM854.833 534.167 861.167 534.167 861.167 540.5 854.833 540.5 854.833 534.167ZM853.25 567.417 862.75 567.417 862.75 557.917 853.25 557.917 853.25 567.417ZM854.833 559.5 861.167 559.5 861.167 565.833 854.833 565.833 854.833 559.5ZM851.135 562.112C851.906 562.882 851.906 564.136 851.135 564.907L846.948 569.093 845.829 567.974 849.553 564.25 842.958 564.25C840.776 564.25 839 562.475 839 560.292L839 552.375C839 550.193 840.776 548.417 842.958 548.417L851.667 548.417 851.667 550 842.958 550C841.649 550 840.583 551.066 840.583 552.375L840.583 560.292C840.583 561.601 841.649 562.667 842.958 562.667L849.448 562.667 845.829 559.047 846.948 557.928 851.135 562.114ZM865.917 546.833 864.333 546.833 864.333 545.25 865.917 545.25C866.791 545.25 867.5 544.539 867.5 543.667 867.5 542.794 866.791 542.083 865.917 542.083L864.333 542.083 864.333 540.5 865.917 540.5C867.663 540.5 869.083 541.92 869.083 543.667 869.083 545.413 867.663 546.833 865.917 546.833ZM873.612 545.41 876.683 547.204 874.289 551.306 871.222 549.516C870.374 550.29 869.376 550.865 868.289 551.206L868.289 554.75 864.33 554.75 864.33 553.167 866.705 553.167 866.705 549.951C868.414 549.737 869.911 548.844 870.917 547.549L873.719 549.139 874.517 547.772 871.726 546.187C872.062 545.415 872.248 544.563 872.248 543.667 872.248 542.796 872.073 541.966 871.754 541.213L874.517 539.561 873.719 538.195 870.961 539.843C869.956 538.518 868.439 537.599 866.705 537.384L866.705 534.168 864.33 534.168 864.33 532.585 868.289 532.585 868.289 536.128C869.376 536.47 870.371 537.045 871.222 537.818L874.289 536.029 876.683 540.131 873.612 541.925C873.76 542.533 873.833 543.109 873.833 543.668 873.833 544.227 873.76 544.802 873.612 545.411Z"/></g></svg>