<svg width="38" height="37" xmlns="http://www.w3.org/2000/svg" xmlns:xlink="http://www.w3.org/1999/xlink" xml:space="preserve" overflow="hidden"><defs><clipPath id="clip0"><rect x="839" y="239" width="38" height="37"/></clipPath></defs><g clip-path="url(#clip0)" transform="translate(-839 -239)"><path d="M13.1042 7.70833C15.2301 7.70833 16.9583 5.98012 16.9583 3.85417 16.9583 1.72821 15.2301 0 13.1042 0 10.9782 0 9.25 1.72821 9.25 3.85417 9.25 5.98012 10.9782 7.70833 13.1042 7.70833ZM13.1042 1.54167C14.3791 1.54167 15.4167 2.57921 15.4167 3.85417 15.4167 5.12912 14.3791 6.16667 13.1042 6.16667 11.8292 6.16667 10.7917 5.12912 10.7917 3.85417 10.7917 2.57921 11.8292 1.54167 13.1042 1.54167ZM6.19287 14.4485C7.00533 11.3883 9.84817 9.25 13.1042 9.25 16.3602 9.25 19.203 11.3883 20.0155 14.4485 20.1234 14.8601 19.8798 15.281 19.4682 15.3905 19.0195 15.52 18.6172 15.1885 18.5262 14.8432 17.8941 12.4582 15.6649 10.7917 13.1042 10.7917 10.5435 10.7917 8.31575 12.4582 7.68212 14.8432 7.57267 15.2563 7.15642 15.5061 6.74017 15.3905 6.327 15.281 6.08342 14.8586 6.19287 14.4485ZM35.7374 14.8833C34.9712 14.188 33.9706 13.8303 32.9485 13.8796 31.9156 13.9274 30.9628 14.3745 30.2675 15.1392L24.514 21.4646C24.03 19.7565 22.4559 18.5 20.5936 18.5L5.39583 18.5C2.42042 18.5 0 20.9204 0 23.8958L0 31.6042C0 34.5796 2.42042 37 5.39583 37L14.5919 37C18.7636 37 22.7488 35.2132 25.5269 32.0975L36.0195 20.3192C37.424 18.7451 37.2975 16.3047 35.7374 14.8833ZM34.8694 19.2924 24.3768 31.0707C21.8917 33.8596 18.3242 35.4583 14.5919 35.4583L5.39583 35.4583C3.26988 35.4583 1.54167 33.7301 1.54167 31.6042L1.54167 23.8958C1.54167 21.7699 3.26988 20.0417 5.39583 20.0417L20.592 20.0417C21.9872 20.0417 23.125 21.1779 23.125 22.5746 23.125 23.8265 22.1923 24.9041 20.9697 25.0783L11.4715 26.2145C11.0491 26.2638 10.747 26.6477 10.7978 27.0717 10.8472 27.4941 11.2341 27.807 11.655 27.7454L21.1702 26.6076C22.7457 26.3825 24.0161 25.2525 24.4786 23.7956L31.4099 16.1813C31.8277 15.7204 32.4012 15.4506 33.0225 15.4228 33.6469 15.3935 34.2389 15.6078 34.6998 16.0272 35.6387 16.8843 35.7142 18.3505 34.8694 19.297Z" transform="matrix(1.02703 0 0 1 839 239)"/></g></svg>