<svg width="38" height="37" xmlns="http://www.w3.org/2000/svg" xmlns:xlink="http://www.w3.org/1999/xlink" xml:space="preserve" overflow="hidden"><defs><clipPath id="clip0"><rect x="992" y="618" width="38" height="37"/></clipPath></defs><g clip-path="url(#clip0)" transform="translate(-992 -618)"><path d="M26.2083 7.70833 32.375 7.70833 32.375 9.25 26.2083 9.25 26.2083 7.70833ZM26.2083 13.875 32.375 13.875 32.375 12.3333 26.2083 12.3333 26.2083 13.875ZM26.2083 18.5 32.375 18.5 32.375 16.9583 26.2083 16.9583 26.2083 18.5ZM26.2083 23.125 32.375 23.125 32.375 21.5833 26.2083 21.5833 26.2083 23.125ZM23.125 15.4167C23.125 20.518 18.9764 24.6667 13.875 24.6667 8.77362 24.6667 4.625 20.518 4.625 15.4167 4.625 10.3153 8.77362 6.16667 13.875 6.16667 18.9764 6.16667 23.125 10.3153 23.125 15.4167ZM13.875 23.125C15.7219 23.125 17.3962 22.4451 18.7251 21.3582L13.1042 15.7373 13.1042 7.78696C9.21917 8.18008 6.16667 11.4315 6.16667 15.4167 6.16667 19.667 9.62463 23.125 13.875 23.125ZM21.5833 15.4167C21.5833 11.4299 18.5308 8.18008 14.6458 7.78696L14.6458 15.0975 19.8166 20.2683C20.9035 18.9394 21.5833 17.2651 21.5833 15.4182ZM19.2708 29.2917 19.2708 33.9167 27.75 33.9167 27.75 35.4583 9.25 35.4583 9.25 33.9167 17.7292 33.9167 17.7292 29.2917 0 29.2917 0 5.39583C0 3.27142 1.72821 1.54167 3.85417 1.54167L33.1458 1.54167C35.2718 1.54167 37 3.27142 37 5.39583L37 29.2917 19.2708 29.2917ZM1.54167 27.75 35.4583 27.75 35.4583 5.39583C35.4583 4.12087 34.4208 3.08333 33.1458 3.08333L3.85417 3.08333C2.57921 3.08333 1.54167 4.12087 1.54167 5.39583L1.54167 27.75Z" transform="matrix(1.02703 0 0 1 992 618)"/></g></svg>